<svg xmlns="http://www.w3.org/2000/svg" xml:space="preserve" width="500" height="290.48401" viewBox="0 0 500.00001 290.48401"><defs><linearGradient id="a" x1="0" x2="1" y1="0" y2="0" gradientTransform="matrix(0 -360.09045 -360.09045 0 634.581 364.257)" gradientUnits="userSpaceOnUse" spreadMethod="pad"><stop offset="0" style="stop-opacity:1;stop-color:#fff"/><stop offset="0.912642" style="stop-opacity:1;stop-color:#d489b2"/><stop offset="1" style="stop-opacity:1;stop-color:#d489b2"/></linearGradient><clipPath id="b" clipPathUnits="userSpaceOnUse"><path d="M0 732.758h1261.269V0H0Z"/></clipPath></defs><path d="M1018.178 327.706a55.803 55.803 0 0 1-3.713-7.511c-25.343-62.313-2.058-122.913 70.871-142.766 45.268-15.684 102.298-16.991 97.901-49.307-6.415-56.793-115.604-34.574-121.306 39.802h-54.06V6.815c34.495-2.116 51.09 8.436 55.842 40.396l5.228 2.495c18.887-27.4 47.245-44.6 78.112-48.861 9.75-1.345 19.638-1.031 29.35.569 46.336 7.636 75.67 37.193 84.866 77.977v52.987c-9.285 39.341-41.468 56.979-107.2 70.595-43.426 8.317-74.65 20.707-67.722 52.218 13.128 48.178 109.366 32.257 120.742-42.238h54.089v151.308c-32.548 2.221-51.762-10.317-55.158-40.367l-5.614-2.495c-23.384 33.794-60.877 49.31-96.618 49.307-35.403-.002-69.088-15.229-85.61-43M318.551 368.61c-27.831 0-43.39-11.68-50.431-40.01h-6.33c-3.15 23.28-29.88 37.78-60.77 35.64V260.87h41.03v-151h-41.03V6.5c30.89-2.14 57.62 12.36 60.77 35.65h6.33c7.041-28.34 22.6-40.01 50.431-40.01 17.509-.22 37.909 1.83 59.439 4.78V132.5h-33.03c-.98-6.51-3.649-12.55-7.599-16.75-3.561-3.77-8.631-5.76-13.821-5.76h-43.39v60.95l73.84-24.18v79.9l-73.84-26.86v60.95h43.39c5.19 0 10.26-1.98 13.821-5.76 3.95-4.2 6.619-10.23 7.599-16.75h33.03v125.58c-20.515 2.811-40.008 4.805-56.948 4.805-.838 0-1.666-.005-2.491-.015m135.732-1.377v-102.98h39.3l-49.099-154.359h-47.25V6.554c32.98-1.27 56.379 12.06 60.719 35.699h6.83c6.12-24.06 28.1-36.09 62.2-35.699v103.43h-46.87l14.451 44.91h93.2l13.729-45h-47.77V6.554c32.981-1.27 56.381 12.06 60.72 35.699h6.831c6.12-24.06 28.099-36.09 62.2-35.699v103.43h-46.871l-49.22 154.269h42.21v102.98c-44.969 3.89-77.649-5.65-84.569-35.64h-6.18c-7.979 25.995-31.402 36.482-66.294 36.481-5.779 0-11.877-.288-18.267-.841m85.39-199.109c-1.9.769-2.279 2.59-2.489 4.519-.121 1.1-.27 2.201-.51 3.27-7.451 33.601-38.34 29.831-34.081 71.17.321 3.121.99 6.21 2.111 9.141 8.29 21.749 27.9 21.799 36.049.759l.051-.109.039.099c8.141 21.031 27.751 21 36.051-.71 1.119-2.95 1.909-6.04 2.119-9.18 2.87-41.999-27.66-36.89-34.01-70.84a61.065 61.065 0 0 1-.57-3.539 8.843 8.843 0 0 0-.18-1.021c-.389-1.679-.97-2.959-2.15-3.55a2.646 2.646 0 0 0-1.176-.263c-.425 0-.855.09-1.254.254m163.802 193.341V260.891h45.356V109.257h-45.356V5.921c32.976-1.269 56.376 12.059 60.713 35.703h6.832c6.118-24.06 28.099-36.089 62.198-35.703l-.001 103.425h-46.871v157.783c36.46-78.79 76.353-167.338 118.277-261.594h78.416V108.01h-38.316v152.911h45v103.812c-33.416.657-58.119-11.517-62.377-35.733h-6.505c-8.911 27.06-33.683 36.39-60.95 35.733V260.832h46.872V100.436c-29.742 66.312-58.477 131.081-86.021 194.02-21.663 48.765-40.8 70.933-82.34 70.934-10.177 0-21.694-1.33-34.927-3.925M50.73 364.56v-103.9h47.303l.92-150.652H59.247c-2.195 0-4.383.408-6.389 1.299-8.196 3.642-13.46 10.578-15.004 21.69H4.973V11.23C52.8 6.232 93.637 2.186 114.666 14.305c11.762 7.218 16.529 13.094 18.988 19.933 1.314 3.657 1.864 7.544 1.866 11.429l.042 62.171-.698 152.911h45.698V364.56c-33.416.658-58.12-11.516-62.376-35.732h-6.505c-7.969 27.216-31.851 35.768-57.971 35.769-.991 0-1.983-.013-2.98-.037" style="fill:url(#a);stroke:none" transform="matrix(.39643 0 0 -.39643 0 290.484)"/><g clip-path="url(#b)" transform="matrix(.39643 0 0 -.39643 0 290.484)"><path d="M0 0c44.931-4.696 87.26-9.025 108.193 3.039 10.538 6.467 15.918 12.093 18.547 19.404 1.197 3.328 1.804 7.06 1.807 11.093l.042 62.166-.702 153.914h45.702v101.828c-33.916.425-56.468-12.6-60.391-34.921l-.146-.827h-8.093l-.21.719c-6.966 23.784-26.838 35.586-58.992 35.034V249.527h47.296l.933-152.652H53.274c-2.438 0-4.724.466-6.795 1.386-8.584 3.813-13.782 11.08-15.459 21.604H0Zm65.124-6.764c-19.645 0-42.596 2.399-66.228 4.868L-2-1.803v123.668h34.752l.12-.862c1.445-10.405 6.162-17.246 14.419-20.914 1.813-.806 3.827-1.214 5.983-1.214h38.7l-.909 148.652H43.757v105.878l.976.023c32.955.811 54.297-11.557 61.719-35.732h4.93c4.55 23.085 28.125 36.422 63.226 35.733l.981-.02V247.616h-45.693l.693-151.911-.042-62.171c-.003-4.263-.651-8.222-1.925-11.766-2.798-7.783-8.42-13.706-19.406-20.448-10.433-6.011-25.835-8.084-44.092-8.084m190.814 38.273h7.982l.189-.759c6.835-27.513 21.628-39.251 49.465-39.251 15.113-.18 33.693 1.296 58.436 4.655v123.711h-31.179c-1.134-6.525-3.86-12.337-7.728-16.438-3.643-3.862-8.942-6.076-14.54-6.076h-44.395v63.33l73.842-24.178v77.094l-73.842-26.859v63.378h44.395c5.598 0 10.897-2.215 14.54-6.076 3.868-4.102 6.594-9.913 7.728-16.438h31.179v123.71c-24.741 3.36-43.324 4.839-58.424 4.656-27.849 0-42.642-11.739-49.477-39.251l-.189-.759h-7.982l-.117.866c-2.943 21.758-28.128 36.632-58.781 34.839V250.235h41.034V97.232H197.04V-4.196c30.653-1.808 55.839 13.08 58.781 34.839zm60.169-42.026c-.859 0-1.707.006-2.545.016-28.277 0-44.102 12.349-51.202 40.01h-4.686c-1.788-11.072-8.985-20.713-20.348-27.224C226-4.205 211.31-7.196 195.971-6.133l-.931.065v105.3h41.034v149.003H195.04v105.299l.931.065c15.339 1.063 30.029-1.927 41.355-8.417 11.363-6.511 18.56-16.153 20.348-27.224h4.686c7.1 27.661 22.925 40.01 51.214 40.01 15.374.188 34.298-1.336 59.571-4.792l.865-.118V225.602h-34.89l-.129.85c-.977 6.472-3.585 12.231-7.343 16.215-3.266 3.463-8.035 5.449-13.085 5.449h-42.395v-58.522l73.842 26.858v-82.709l-73.842 24.178v-58.57h42.395c5.05 0 9.819 1.986 13.085 5.449 3.758 3.984 6.366 9.743 7.343 16.215l.129.85h34.89V-5.591l-.865-.119c-23.897-3.267-42.126-4.807-57.038-4.807m200.699 270.419h-.033c-7.079-.018-13.551-5.919-17.312-15.784-1.03-2.7-1.719-5.691-2.049-8.889-2.374-23.04 6.444-31.825 15.782-41.126 7.377-7.349 15.005-14.949 18.282-29.716.214-.97.382-2.043.529-3.379.219-2.002.581-3.187 1.868-3.708.566-.229 1.17-.236 1.615-.016.745.369 1.23 1.232 1.621 2.882.072.301.12.608.16.916a62.1 62.1 0 0 0 .583 3.6c2.849 15.251 10.451 22.75 17.803 30.003 9.136 9.012 17.765 17.526 16.19 40.578-.194 2.833-.887 5.824-2.059 8.89-3.764 9.844-10.233 15.73-17.305 15.745h-.027c-6.904 0-13.198-5.611-16.847-15.019l-.878-2.517-1.063 2.475c-3.661 9.448-9.957 15.065-16.86 15.065m17.941-104.78c-.538 0-1.091.107-1.625.324-2.435.988-2.879 3.277-3.105 5.345-.139 1.262-.295 2.267-.494 3.163-3.149 14.196-10.567 21.586-17.741 28.732-9.684 9.647-18.832 18.759-16.359 42.749.348 3.371 1.077 6.532 2.169 9.396 4.068 10.669 11.237 17.051 19.176 17.071 7.197-.004 13.787-5.241 17.86-14.194 4.067 8.933 10.615 14.19 17.825 14.19h.032c7.932-.017 15.098-6.383 19.169-17.03 1.243-3.253 1.979-6.438 2.186-9.469 1.639-23.967-7.308-32.794-16.78-42.138-7.133-7.036-14.508-14.312-17.243-28.947a60.591 60.591 0 0 1-.565-3.485 10.712 10.712 0 0 0-.196-1.125c-.361-1.521-.992-3.376-2.681-4.213a3.663 3.663 0 0 0-1.628-.369M548.554-4.227c32.131-.982 54.593 12.368 58.73 34.916l.15.82h8.442l.192-.754c5.822-22.889 26.431-34.957 59.637-34.957l.592.001V97.232h-46.602l-.223.697-49.633 155.58h42.577V354.57c-33.584 2.774-74.79-1.144-82.59-34.949l-.179-.775h-7.712l-.218.706c-4.447 14.484-13.709 24.299-28.315 30.006-13.515 5.281-31.279 6.921-54.293 5.012V253.509h39.664L439.038 97.143h-46.974V-4.227c32.131-.982 54.594 12.368 58.73 34.916l.15.82h8.442l.192-.754c5.822-22.889 26.43-34.957 59.636-34.957l.593.001V97.232h-47.243l15.094 46.911h94.676l14.333-47h-48.113zm3.227-2.048c-1.405 0-2.823.027-4.265.083l-.962.037V99.143h47.412l-13.113 43h-91.738l-13.807-42.911h46.499V-6.182l-.989-.011c-34.77-.362-56.554 11.947-62.981 35.702h-5.235C447.845 6.185 424.351-7.48 391.026-6.192l-.962.037V99.143h47.511l48.463 152.366h-38.929v104.897l.913.079c48.401 4.188 76.337-7.47 85.385-35.639h4.656c6.849 27.566 36.363 39.888 85.439 35.639l.914-.079V251.509h-41.839l48.579-152.277h47.141V-6.182l-.988-.011c-34.815-.378-56.555 11.947-62.981 35.702h-5.236C604.54 7.194 582.831-6.274 551.781-6.275m348.69 1.695h76.767V95.896H938.92v154.911h45v101.827c-33.879.406-56.466-12.602-60.39-34.921l-.146-.827h-8.068l-.227.687c-9.707 29.482-37.232 35.394-59 35.065V250.717h46.871V84.648l-1.912 4.264c-30.442 67.874-59.384 133.154-86.023 194.027-25.607 57.642-47.35 79.72-115.352 66.587v-98.75h45.357V97.143h-45.357V-4.227c32.108-.955 54.593 12.367 58.73 34.916l.15.82h8.442l.191-.754c5.822-22.889 26.431-34.957 59.637-34.957l.593.001V97.232h-46.872v163.324l1.908-4.122C815.676 184.637 854.283 99.255 900.471-4.58m78.767-2h-80.066l-.264.594c-45.419 102.11-83.512 186.39-116.364 257.456V99.232h46.872V-6.182l-.989-.011c-34.823-.378-56.554 11.947-62.981 35.702h-5.235c-4.758-23.323-28.247-36.984-61.576-35.701l-.962.037V99.143h45.357v149.633h-45.357v102.397l.808.159c34.023 6.672 56.986 4.846 74.454-5.922 16.165-9.965 28.89-27.83 43.92-61.663 26.081-59.599 54.365-123.411 84.105-189.752v154.722h-46.871v105.877l.976.024c31.675.766 53.518-11.92 61.693-35.732h4.955c4.55 23.085 28.094 36.432 63.227 35.732l.98-.019V248.807h-45V97.896h38.318zm84.121 45.487.484-.702c18.277-26.514 46.496-44.169 77.426-48.437 9.255-1.276 19.028-1.087 29.05.564 51.38 8.468 83.87 45.05 86.911 97.858.656 31.593-6.647 52.523-23.678 67.828-16.397 14.734-41.999 24.875-85.607 33.908-25.944 4.969-53.937 12.262-64.747 28.669-4.572 6.939-5.833 15.263-3.749 24.743 5.106 18.739 23.112 29.496 46.978 28.132 32.363-1.856 68.573-26.338 75.596-69.584h52.234v149.368c-32.559 1.955-49.937-10.983-53.164-39.54l-.064-.569-6.895-3.064-.471.681c-22.107 31.949-59.485 50.185-99.985 48.804-35.356-1.213-65.473-17.079-80.561-42.44a54.897 54.897 0 0 1-3.647-7.376c-12.879-31.665-13.045-63.104-.468-88.528 12.586-25.446 37.026-43.737 70.676-52.897 12.371-4.283 25.487-7.465 38.169-10.542 34.223-8.302 63.778-15.471 60.461-39.864-2.298-20.342-18.436-32.858-42.232-32.859-.411 0-.823.003-1.238.011-17.828.321-36.543 7.384-51.343 19.378-11.728 9.503-26.101 26.278-28.407 52.406h-52.137V-4.31c34.201-1.884 49.342 9.278 53.852 39.6l.078.525zm90.277-51.973c-4.298 0-8.517.284-12.64.853-31.211 4.307-59.706 21.995-78.312 48.582l-3.982-1.9c-2.482-16.132-7.923-26.664-17.102-33.12-8.952-6.298-21.568-8.713-39.711-7.6l-.938.058v163.048h55.984l.071-.923c3.294-42.963 42.985-70.234 77.869-70.861 23.74-.439 39.2 11.199 41.448 31.095 3.078 22.627-25.665 29.6-58.947 37.674-12.729 3.088-25.891 6.28-38.288 10.575-34.153 9.295-59.031 27.947-71.879 53.919-12.834 25.944-12.689 57.967.408 90.17a57.056 57.056 0 0 0 3.781 7.645c15.438 25.949 46.171 42.179 82.212 43.416 40.914 1.409 78.669-16.896 101.223-48.985l4.339 1.929c3.531 29.298 22.42 42.989 56.154 40.681l.931-.064v-153.24h-55.947l-.13.848c-6.524 42.722-42.098 66.918-73.867 68.739-22.867 1.302-40.093-8.886-44.923-26.613-1.979-9.009-.846-16.602 3.479-23.165 8.272-12.555 27.254-20.872 63.467-27.807 43.994-9.114 69.874-19.395 86.553-34.382 17.503-15.729 25.01-37.131 24.339-69.394-3.101-53.845-36.215-91.123-88.584-99.753-5.763-.95-11.45-1.425-17.008-1.425" style="fill:#000;fill-opacity:1;fill-rule:nonzero;stroke:none" transform="translate(2 16.164)"/><path d="M0 0c-129.452-7.329-168.842-180.248-222.832-306.137-2.261-5.213-5.98-7.863-14.018-9.123l-50.672-3c-5.426 0-9.044 6.648-6.33 10.991 18.258 38.19 88.381 161.181 60.407 235.121-46.614-55.248-70.377-297.545-211.345-305.119-122.065-6.559-74.653 133.541 12.83 137.059 20.784.836 29.643-12.109 26.97-25.475-3.899-19.494-21.002-35.342-37.545-37.243-12.579-1.445-18.643 9.213-12.311 9.213 11.47 0 18.678 13.281 6.163 14-20.837 1.198-29.411-34.615 9.772-31.302 72.094 6.097 131.414 236 179.347 272.49-7.688 3.041-15.175 3.454-25.782 3.565-91.367.95-135.218-109.425-96.238-109.783 15.183-.139 26.57 18.76 7.247 21.258-9.737 1.259 6.643 17.65 24.495 15 36.545-5.426-2.752-90.168-71.459-87.98-98.062 3.123-20.912 199.883 147.063 179.237 76.362-9.385 88.139-60.326 89.164-115.284 31.767 104.68 76.866 178.868 145.123 177.611C3.951 44.29 4.804.272 0 0" style="fill:#4277ae;fill-opacity:1;fill-rule:nonzero;stroke:none" transform="translate(765.851 684.901)"/><path d="M0 0c23.868 1.917-10.24-71.12-40.68-71.12-11.19 0-7.96 13.03-7.96 13.03-4.03.85-7.15-.87-10.28-2.14C-47.16-27.43-19.588-1.573 0 0m339.49-46.51c-9.12-18.93-19.94-25.97-42.53-23.15 28.67 53.96 39.2 115.6 20.52 120.84-33.01 9.66-103.24-149.41-74.57-149.41 0 0-16.59-1-18.76-1-28.227.008-13.549 34.042-8.34 45.72 7.82 17.31 40.57 93.98 40.57 93.98 1.3 3.62-1.3 7.25-5.65 7.25-10.86 0-8.06-9.82-19.75-10.65-4.84-.35-29.46-2-29.46-2 .43 1.61-41.43-89.51-50.32-106.92-11.88-23.29-24.71-39.18-36-39.68-23.88-1.07-15.09 23.64-15.09 23.64l53.4 119.36c1.74 3.62-1.3 7.25-5.21 7.25-11.3 0-9.38-8.41-21.53-8.97-4.91-.23-29.13-1.68-29.13-1.68S70.61-30.99 50.56-73.27c-4.9-7.67-32.39-46.66-85.53-48.48-22.82-.78-32.43 7.93-32.43 25.28 4.03-4.23 9.6-5.45 19.42-4.68C43.77-93.93 86.45 29.97 11.24 29.97c-60.42 0-151.67-83.68-151.67-157.72 0-39.566 32.7-59.74 81.49-59.74 36.95 0 65.46 18.78 86.49 41.06 2.44-17.91 14.6-31.1 48.68-31.41 25.23-.22 46.875 17.891 61.6 40.45 5.354-23.51 19.93-32.58 55.43-32.44 24.38.09 53.97 20.65 78.24 57.32h8.69c21.29 0 56.776 12.561 76.68 51.89z" style="fill:#4277ae;fill-opacity:1;fill-rule:nonzero;stroke:none" transform="translate(747.519 602.148)"/><path d="M0 0c-129.452-7.329-169.842-181.248-223.832-307.137-2.261-5.213-5.98-7.863-14.018-9.123l-45.672-3c-5.426 0-9.044 4.648-6.33 8.991 18.258 38.19 86.381 167.181 58.406 241.121-49.96-53.822-74.376-301.545-215.344-309.119-115.085-6.184-67.664 131.822 12.83 135.059 20.784.836 29.643-11.109 26.97-24.475-3.899-19.494-18.002-33.342-34.545-35.243-12.579-1.445-15.643 5.213-9.312 5.213 14.471 0 18.669 17.109 3.164 18-22.831 1.312-34.396-37.783 6.772-34.302 72.094 6.097 131.414 236.001 179.347 272.49-7.688 3.041-15.175 3.454-25.783 3.565-91.366.95-135.217-109.425-96.237-109.783 17.183-.157 34.693 24.476 13.247 23.258-8.578-.487 3.764 9 20.495 9 32.559 0-1.543-83.004-68.46-81.98-97.1 1.485-24.926 197.762 142.064 177.237 76.362-9.385 92.139-60.326 93.164-115.284 31.767 104.68 71.866 176.868 140.123 175.611C.965 39.29 4.515.256 0 0" style="fill:#fff;fill-opacity:1;fill-rule:nonzero;stroke:none" transform="translate(764.703 691.644)"/><path d="m0 0 .057-.999zm-431.846-245.165a49.25 49.25 0 0 1-2.017-.041c-28.255-1.136-56.116-20.366-70.979-48.991-11.808-22.743-12.712-45.851-2.417-61.815 10.4-16.127 31.318-23.832 60.472-22.255 42.252 2.269 77.643 26.325 108.197 73.541 26.509 40.966 45.113 92.523 61.528 138.011 15.468 42.868 28.828 79.89 44.94 97.248l1.098 1.183.57-1.509c11.193-29.584 8.347-71.422-8.46-124.352-13.796-43.449-33.457-83.683-45.204-107.721-1.822-3.73-3.434-7.027-4.775-9.832l-.054-.099c-.938-1.5-1.023-3.105-.24-4.517 1.007-1.816 3.2-2.944 5.722-2.944l45.607 2.998c7.383 1.161 10.975 3.473 13.166 8.522 9.341 21.781 18.086 44.51 27.344 68.573 21.654 56.284 44.046 114.483 74.437 159.387C-88.44-28.848-48.257-2.753-.063-.004c.639.565 1.167 4.723-.663 10.67-1.934 6.289-10.693 26.855-42.186 27.435-32.025.579-59.161-15.001-82.919-47.667-20.626-28.361-38.493-68.79-56.23-127.235l-1.838-6.059-.119 6.331c-.895 48.05-12.194 104.466-92.285 114.31-65.704 8.074-126.237-17.576-161.928-68.619-21.664-30.981-28.616-64.783-17.709-86.113 6.72-13.145 19.761-20.238 37.711-20.513.406-.006.815-.009 1.219-.009 33.7 0 58.421 21.443 70.392 41.699 7.883 13.337 10.43 26.418 6.489 33.324-1.88 3.295-5.128 4.966-9.656 4.966-12.445 0-21.392-5.246-22.237-6.888.216-.072.702-.171 1.686-.113 5.167.288 8.571-.82 10.125-3.307 1.352-2.165 1.074-5.182-.783-8.495-3.721-6.639-13.083-13.455-22.369-13.455l-.174.001c-5.779.053-10.179 2.462-12.722 6.967-5.479 9.703-1.889 28.043 9.146 46.721 16.647 28.18 51.253 58.1 98.659 58.1.391 0 .782-.002 1.175-.006 10.194-.106 18.036-.429 26.139-3.635l1.649-.652-1.411-1.073c-19.039-14.494-40.394-60.91-63.004-110.053-34.276-74.499-73.124-158.939-116.864-162.638-12.847-1.083-22.188 1.927-26.307 8.485-3.099 4.935-2.882 11.626.566 17.461 4.033 6.824 11.288 10.788 18.942 10.351 8.123-.467 10.877-5.134 10.766-8.989-.155-5.412-5.43-11.009-13.987-11.009-1.466 0-2.062-.396-2.172-.605-.077-.144.071-.387.137-.485.872-1.275 4.586-2.895 11.233-2.13 16.4 1.884 29.934 15.727 33.678 34.446 1.208 6.037-.073 11.64-3.607 15.778-4.229 4.953-11.229 7.542-20.325 7.542m-22.251-135.304c-32.642-.001-47.816 12.475-54.843 23.373-10.689 16.574-9.821 40.433 2.323 63.82 7.095 13.665 17.259 25.562 29.392 34.405 13.225 9.641 28.192 15.057 43.282 15.663 13.531.549 20.492-4.158 23.943-8.2 3.94-4.614 5.378-10.819 4.047-17.47-3.914-19.573-18.145-34.057-35.41-36.04-7.58-.867-11.798 1.066-13.112 2.988-.574.839-.667 1.767-.256 2.548.569 1.077 1.968 1.671 3.941 1.671 7.341 0 11.86 4.61 11.988 9.067.089 3.1-2.198 6.55-8.882 6.934-8.263.485-14.244-4.53-17.105-9.372-3.065-5.188-3.293-11.081-.594-15.38 3.7-5.892 12.384-8.577 24.445-7.555 42.578 3.601 81.168 87.478 115.215 161.481 22.174 48.194 43.145 93.778 62.21 109.691-7.233 2.513-14.51 2.789-23.787 2.886-.383.004-.772.006-1.153.006-46.569 0-80.572-29.413-96.939-57.117-10.513-17.797-14.18-35.768-9.126-44.721 2.204-3.901 5.904-5.903 11-5.95 8.481-.029 17.394 6.392 20.779 12.432 1.484 2.647 1.779 4.94.832 6.457-1.122 1.796-3.993 2.619-8.316 2.37-1.93-.107-3.076.228-3.601 1.064-.208.33-.478 1.026.049 1.979 1.749 3.167 12.21 7.955 23.99 7.955 5.223 0 9.163-2.066 11.393-5.974 4.291-7.52 1.738-21.389-6.504-35.334-12.4-20.981-38.215-43.192-73.364-42.672-18.737.287-32.382 7.757-39.461 21.603-11.239 21.981-4.232 56.589 17.851 88.169 16.13 23.068 38.301 41.808 64.117 54.193 30.297 14.537 63.838 19.67 99.694 15.266 35.626-4.379 60.338-17.789 75.548-40.998 11.252-17.17 17.12-39.266 18.317-69.186 17.222 55.553 34.676 94.432 54.746 122.027 24.17 33.231 51.795 49.071 84.573 48.491C-6.363 39.428 2.359 12.809 2.536 3.537 2.602.111 1.719-1.906.113-1.997c-47.555-2.692-87.256-28.502-121.368-78.902-30.263-44.714-52.613-102.805-74.227-158.984-9.265-24.081-18.016-46.827-27.374-68.647-2.479-5.715-6.623-8.437-14.782-9.716l-45.761-3.01h-.007c-3.312 0-6.172 1.523-7.53 3.972-1.126 2.031-1.029 4.396.262 6.497 1.339 2.8 2.944 6.085 4.759 9.799 11.723 23.989 31.343 64.139 45.095 107.448 16.374 51.567 19.421 92.429 9.065 121.492-15.355-17.555-28.39-53.676-43.426-95.346-16.451-45.589-35.096-97.261-61.73-138.418-30.926-47.792-66.832-72.146-109.768-74.453a138.246 138.246 0 0 0-7.418-.204" style="fill:#4277ae;fill-opacity:1;fill-rule:nonzero;stroke:none" transform="translate(764.646 692.642)"/><path d="M0 0c27.3 0-14.24-74.12-44.68-74.12-11.19 0-7.96 11.03-7.96 11.03-4.03.85-8.15-.87-11.28-2.14C-52.16-32.43-20.59 0 0 0m335.49-49.51c-9.12-18.93-19.94-27.97-42.53-25.15 28.67 53.96 39.2 117.6 20.52 122.84-33.01 9.66-97.24-153.41-68.57-153.41 0 0-16.59-1-18.76-1-33.56.01-19.55 37.04-14.34 48.72 7.82 17.31 41.57 93.98 41.57 93.98 1.3 3.62-1.3 7.25-5.65 7.25-10.86 0-9.06-8.82-20.75-9.65-4.84-.35-29.46-2-29.46-2 .43 1.61-41.43-89.51-50.32-106.92-11.88-23.29-24.71-39.18-36-39.68-23.88-1.07-15.09 23.64-15.09 23.64l53.4 119.36c1.74 3.62-1.3 7.25-5.21 7.25-11.3 0-9.38-8.41-21.53-8.97-4.91-.23-29.13-1.68-29.13-1.68S66.61-33.99 46.56-76.27c-4.9-7.67-32.39-46.66-85.53-48.48-22.82-.78-31.43 10.93-31.43 28.28 4.03-4.23 11.6-6.45 21.42-5.68C42.77-94.93 82.45 26.97 7.24 26.97c-60.42 0-146.67-83.68-146.67-157.72 0-37.23 30.7-57.74 79.49-57.74 36.95 0 66.46 20.78 87.49 43.06 2.44-17.91 14.6-33.1 48.68-33.41 25.23-.22 46.24 19.92 61.6 43.45 2.61-20.94 17.93-35.58 53.43-35.44 24.38.09 54.97 20.65 79.24 57.32h8.69c21.29 0 52.39 13.25 73.68 49.89z" style="fill:#fff;fill-opacity:1;fill-rule:nonzero;stroke:none" transform="translate(748.37 608.89)"/><path d="M0 0c.81 0 1.625-.075 2.439-.247l1.054-.222-.3-1.035c-.012-.046-1.286-4.566.832-7.385 1.181-1.57 3.256-2.366 6.168-2.366 22.572 0 52.566 43.411 52.566 63.268 0 2.854-.628 5.049-1.867 6.525-1.297 1.544-3.323 2.327-6.018 2.327-19.669 0-49.961-30.625-62.2-62.47C-5.144-.779-2.607 0 0 0m10.193-13.255c-3.58 0-6.196 1.068-7.773 3.173C.418-7.409.709-3.833 1.026-2.049c-3.346.344-6.741-1.042-9.521-2.172l-2.247-.911.755 2.105c11.923 33.254 44.05 65.892 64.861 65.892 3.314 0 5.854-1.023 7.549-3.041 1.55-1.846 2.336-4.474 2.336-7.811 0-21.025-30.57-65.268-54.566-65.268m51.92 101.09c-58.842 0-145.67-82.553-145.67-156.72 0-17.971 7.075-32.107 21.028-42.016 13.565-9.633 33.435-14.724 57.463-14.724 30.797 0 59.989 14.382 86.762 42.747l1.437 1.521.282-2.073c2.905-21.334 18.953-32.284 47.697-32.545l.399-.002c26.672 0 47.531 23.352 60.356 42.998l1.492 2.287.337-2.709c2.859-22.937 20.327-34.565 51.922-34.565l.512.001c25.209.093 55.254 21.885 78.41 56.872l.297.448h9.226c20.213 0 51.209 12.761 72.383 48.655L390.71 10.786c-8.41-16.974-19.127-27.556-43-24.573l-1.44.18.681 1.281c22.991 43.273 35.488 96.016 27.288 115.173-1.456 3.4-3.527 5.498-6.156 6.236-5.855 1.714-13.477-2.623-22.053-12.533-13.094-15.13-28.191-43.163-39.399-73.16-11.136-29.802-15.587-53.712-11.617-62.399 1.032-2.258 2.592-3.356 4.769-3.356l.061-1.998c-.679-.041-16.646-1.002-18.821-1.002-9.315.003-15.867 2.823-19.473 8.384-7.701 11.871.386 33.147 4.221 41.743 7.73 17.113 41.23 93.209 41.568 93.976.464 1.301.292 2.729-.499 3.854-.892 1.266-2.436 1.993-4.236 1.993-5.027 0-7.04-1.962-9.37-4.233-2.391-2.331-5.102-4.974-11.309-5.414-4.387-.318-25.275-1.72-28.922-1.964-1.263-2.551-7.149-15.212-13.88-29.689-12.959-27.873-30.706-66.046-36.159-76.724-9.188-18.013-23.039-39.614-36.847-40.225-7.014-.312-12.044 1.513-14.941 5.43-5.4 7.298-1.312 19.047-1.135 19.544l53.43 119.433c.603 1.256.541 2.551-.164 3.673-.841 1.338-2.425 2.169-4.133 2.169-5.243 0-7.331-1.85-9.748-3.992-2.475-2.193-5.28-4.679-11.737-4.977-4.415-.206-24.75-1.418-28.516-1.643-2.785-6.08-28.035-61.16-46.836-100.806l-.061-.11c-5.015-7.851-32.752-47.106-86.338-48.941-10.969-.371-19.302 2.109-24.758 7.382-5.114 4.941-7.706 12.309-7.706 21.897v2.499l1.723-1.809c3.939-4.133 11.449-6.095 20.618-5.373 59.889 4.713 96.12 58.34 94.751 93.188-.847 21.566-14.863 33.935-38.453 33.935m-67.179-215.46c-50.401 0-80.491 21.959-80.491 58.74 0 34.13 19.05 74.25 50.958 107.32 30.591 31.705 67.65 51.4 96.712 51.4 24.813 0 39.556-13.069 40.451-35.856.753-19.165-8.682-41.519-25.239-59.799-18.77-20.724-44.111-33.318-71.353-35.462-8.565-.668-15.847.924-20.446 4.407.373-7.916 2.738-14.028 7.043-18.189 5.053-4.883 12.9-7.178 23.3-6.821 52.469 1.797 79.678 40.142 84.688 47.966 19.815 41.787 46.777 100.68 47.047 101.27l.25.546.6.036c.242.015 24.282 1.454 29.143 1.681 5.752.265 8.059 2.31 10.503 4.476 2.493 2.21 5.072 4.495 11.074 4.495 2.389 0 4.622-1.189 5.826-3.105 1.068-1.699 1.173-3.732.285-5.578L151.896-29.433c-.01-.038-3.876-11.179.891-17.616 2.478-3.346 6.927-4.899 13.241-4.617 10.024.444 22.508 14.342 35.155 39.136 5.436 10.645 23.174 48.799 36.127 76.657 3.992 8.588 7.512 16.161 10.046 21.581a1158.63 1158.63 0 0 0 3.002 6.381c1.345 2.827 1.471 3.106 2.224 2.861 2.632.176 24.682 1.655 29.199 1.983 5.479.388 7.702 2.556 10.057 4.851 2.422 2.361 4.926 4.801 10.766 4.801 2.46 0 4.601-1.036 5.872-2.842 1.17-1.665 1.432-3.759.719-5.746-.363-.831-33.867-76.937-41.6-94.054-3.699-8.294-11.535-28.787-4.367-39.836 3.213-4.956 9.202-7.469 17.795-7.472 1.401 0 9.068.433 14.14.729-.785.717-1.445 1.653-1.968 2.796-8.985 19.658 22.672 104.594 51.324 137.699 9.255 10.697 17.362 15.12 24.116 13.146 3.229-.906 5.737-3.387 7.442-7.371 8.321-19.44-3.881-72.115-26.676-115.602 22.256-2.321 31.882 7.781 40.061 24.757l.55 1.14 19.025-15.447-.43-.739c-21.585-37.151-52.66-50.388-74.544-50.388h-8.153c-23.481-35.275-54.014-57.225-79.772-57.32l-.504-.001c-38.712-.002-50.637 17.746-53.529 33.73-13.194-19.569-34.016-41.738-60.593-41.741l-.417.002c-28.985.264-45.574 11.111-49.345 32.254-26.785-27.808-55.984-41.904-86.816-41.904" style="fill:#4277ae;fill-opacity:1;fill-rule:nonzero;stroke:none" transform="translate(693.497 547.025)"/></g></svg>