<svg width="75" height="87" viewBox="0 0 75 87" fill="none" xmlns="http://www.w3.org/2000/svg">
<path d="M75 37.5V66.6667C75 68.8768 74.122 70.9964 72.5592 72.5592C70.9964 74.122 68.8768 75 66.6667 75H8.33333C6.1232 75 4.00358 74.122 2.44078 72.5592C0.877973 70.9964 0 68.8768 0 66.6667V37.5H75ZM54.1667 0C55.2717 0 56.3315 0.438987 57.1129 1.22039C57.8943 2.00179 58.3333 3.0616 58.3333 4.16667V8.33333H66.6667C68.8768 8.33333 70.9964 9.21131 72.5592 10.7741C74.122 12.3369 75 14.4565 75 16.6667V29.1667H0V16.6667C0 14.4565 0.877973 12.3369 2.44078 10.7741C4.00358 9.21131 6.1232 8.33333 8.33333 8.33333H16.6667V4.16667C16.6667 3.0616 17.1057 2.00179 17.8871 1.22039C18.6685 0.438987 19.7283 0 20.8333 0C21.9384 0 22.9982 0.438987 23.7796 1.22039C24.561 2.00179 25 3.0616 25 4.16667V8.33333H50V4.16667C50 3.0616 50.439 2.00179 51.2204 1.22039C52.0018 0.438987 53.0616 0 54.1667 0Z" fill="white"/>
</svg>
