<svg width="100" height="100" viewBox="0 0 100 100" fill="none" xmlns="http://www.w3.org/2000/svg">
<path d="M50 12.5H51.6375C46.2847 17.4738 42.8441 24.166 41.9137 31.4134C40.9833 38.6608 42.6219 46.0051 46.5447 52.1697C50.4675 58.3343 56.4265 62.9293 63.3858 65.1561C70.3451 67.3829 77.8647 67.1006 84.6375 64.3583C82.0322 70.6271 77.7741 76.071 72.3174 80.1094C66.8608 84.1479 60.4102 86.6293 53.6538 87.2891C46.8974 87.9489 40.0886 86.7623 33.9537 83.8558C27.8188 80.9494 22.588 76.4321 18.8191 70.7858C15.0503 65.1396 12.8848 58.5762 12.5537 51.7957C12.2226 45.0153 13.7382 38.2721 16.939 32.2855C20.1398 26.2989 24.9057 21.2934 30.7282 17.8031C36.5507 14.3127 43.2115 12.4683 50 12.4667V12.5Z" stroke="white" stroke-width="8" stroke-linecap="round" stroke-linejoin="round"/>
</svg>
