<svg width="100" height="100" viewBox="0 0 100 100" fill="none" xmlns="http://www.w3.org/2000/svg">
<path d="M16.6667 83.3333C14.375 83.3333 12.4139 82.518 10.7834 80.8875C9.15282 79.2569 8.33615 77.2944 8.33337 75V25C8.33337 22.7083 9.15004 20.7472 10.7834 19.1166C12.4167 17.4861 14.3778 16.6694 16.6667 16.6666H83.3334C85.625 16.6666 87.5875 17.4833 89.2209 19.1166C90.8542 20.75 91.6695 22.7111 91.6667 25V75C91.6667 77.2916 90.8514 79.2541 89.2209 80.8875C87.5903 82.5208 85.6278 83.3361 83.3334 83.3333H16.6667ZM51.0959 53.2833C51.4764 53.1777 51.8403 53.0208 52.1875 52.8125L81.6667 34.375C82.2223 34.0277 82.6389 33.5944 82.9167 33.075C83.1945 32.5555 83.3334 31.9819 83.3334 31.3541C83.3334 29.9652 82.7431 28.9236 81.5625 28.2291C80.382 27.5347 79.1667 27.5694 77.9167 28.3333L50 45.8333L22.0834 28.3333C20.8334 27.5694 19.6181 27.5527 18.4375 28.2833C17.257 29.0138 16.6667 30.0375 16.6667 31.3541C16.6667 32.0486 16.8056 32.6569 17.0834 33.1791C17.3612 33.7013 17.7778 34.1 18.3334 34.375L47.8125 52.8125C48.1598 53.0208 48.525 53.1777 48.9084 53.2833C49.2917 53.3888 49.6556 53.4402 50 53.4375C50.3445 53.4347 50.7098 53.3833 51.0959 53.2833Z" fill="white"/>
</svg>
