<svg width="100" height="100" viewBox="0 0 100 100" fill="none" xmlns="http://www.w3.org/2000/svg">
<path d="M38.2291 45.1041C34.9652 41.8402 33.3333 37.9166 33.3333 33.3333C33.3333 28.75 34.9652 24.8263 38.2291 21.5625C41.493 18.2986 45.4166 16.6666 50 16.6666C54.5833 16.6666 58.5069 18.2986 61.7708 21.5625C65.0347 24.8263 66.6666 28.75 66.6666 33.3333C66.6666 37.9166 65.0347 41.8402 61.7708 45.1041C58.5069 48.368 54.5833 50 50 50C45.4166 50 41.493 48.368 38.2291 45.1041ZM16.6666 75V71.6666C16.6666 69.3055 17.275 67.1361 18.4916 65.1583C19.7083 63.1805 21.3222 61.6694 23.3333 60.625C27.6388 58.4722 32.0138 56.8583 36.4583 55.7833C40.9027 54.7083 45.4166 54.1694 50 54.1666C54.5833 54.1638 59.0972 54.7027 63.5416 55.7833C67.9861 56.8638 72.3611 58.4777 76.6666 60.625C78.6805 61.6666 80.2958 63.1777 81.5125 65.1583C82.7291 67.1388 83.3361 69.3083 83.3333 71.6666V75C83.3333 77.2916 82.518 79.2541 80.8875 80.8875C79.2569 82.5208 77.2944 83.3361 75 83.3333H25C22.7083 83.3333 20.7472 82.518 19.1166 80.8875C17.4861 79.2569 16.6694 77.2944 16.6666 75Z" fill="white"/>
</svg>
