<svg width="100" height="100" viewBox="0 0 100 100" fill="none" xmlns="http://www.w3.org/2000/svg">
<path d="M79.1667 55.9625V66.6666C79.1667 76.6583 65.8125 83.3333 50 83.3333C34.1875 83.3333 20.8334 76.6583 20.8334 66.6666V55.9625L45.3584 65.7708C48.0307 66.8407 50.9904 66.9555 53.7375 66.0958L54.6417 65.7708L79.1667 55.9625ZM87.5 43.65L51.5459 58.0333C50.5534 58.4298 49.4466 58.4298 48.4542 58.0333L6.78752 41.3666C3.29169 39.9708 3.29169 35.0291 6.78752 33.6333L48.4542 16.9666C48.7818 16.8348 49.1248 16.7452 49.475 16.7L50 16.6666L50.525 16.7C50.8752 16.7452 51.2183 16.8348 51.5459 16.9666L93.3459 33.6875L93.7959 33.9166L94.2084 34.2L94.575 34.5166L94.8875 34.8583L95.0334 35.0416L95.3375 35.5208L95.5542 36L95.6958 36.425L95.8 36.9875L95.825 37.2291L95.8334 62.5C95.8334 63.605 95.3944 64.6648 94.613 65.4462C93.8316 66.2276 92.7718 66.6666 91.6667 66.6666C90.5616 66.6666 89.5018 66.2276 88.7204 65.4462C87.939 64.6648 87.5 63.605 87.5 62.5V43.65Z" fill="white"/>
</svg>
