<svg width="100" height="100" viewBox="0 0 100 100" fill="none" xmlns="http://www.w3.org/2000/svg">
<path d="M23.5 70.8333L20.5417 73.7917C19.7657 74.5723 19.3301 75.6284 19.3301 76.7292C19.3301 77.83 19.7657 78.886 20.5417 79.6667C21.3224 80.4427 22.3784 80.8783 23.4792 80.8783C24.58 80.8783 25.636 80.4427 26.4167 79.6667L29.375 76.7083C30.0577 75.9113 30.4143 74.8859 30.3738 73.8373C30.3333 72.7886 29.8986 71.7939 29.1566 71.0518C28.4145 70.3098 27.4197 69.875 26.3711 69.8345C25.3224 69.794 24.2971 70.1507 23.5 70.8333ZM20.8334 50C20.8334 48.8949 20.3944 47.8351 19.613 47.0537C18.8316 46.2723 17.7718 45.8333 16.6667 45.8333H12.5C11.395 45.8333 10.3352 46.2723 9.55376 47.0537C8.77236 47.8351 8.33337 48.8949 8.33337 50C8.33337 51.1051 8.77236 52.1649 9.55376 52.9463C10.3352 53.7277 11.395 54.1667 12.5 54.1667H16.6667C17.7718 54.1667 18.8316 53.7277 19.613 52.9463C20.3944 52.1649 20.8334 51.1051 20.8334 50ZM50 20.8333C51.1051 20.8333 52.1649 20.3944 52.9463 19.613C53.7277 18.8316 54.1667 17.7717 54.1667 16.6667V12.5C54.1667 11.3949 53.7277 10.3351 52.9463 9.55373C52.1649 8.77233 51.1051 8.33334 50 8.33334C48.895 8.33334 47.8352 8.77233 47.0538 9.55373C46.2724 10.3351 45.8334 11.3949 45.8334 12.5V16.6667C45.8334 17.7717 46.2724 18.8316 47.0538 19.613C47.8352 20.3944 48.895 20.8333 50 20.8333ZM23.5 29.375C24.2761 30.1448 25.3236 30.5787 26.4167 30.5833C26.9651 30.5865 27.5087 30.4814 28.0163 30.2741C28.524 30.0667 28.9857 29.7612 29.375 29.375C30.1511 28.5943 30.5867 27.5383 30.5867 26.4375C30.5867 25.3367 30.1511 24.2807 29.375 23.5L26.4167 20.5417C25.6196 19.8591 24.5943 19.5024 23.5457 19.5429C22.497 19.5834 21.5023 20.0181 20.7602 20.7602C20.0181 21.5022 19.5834 22.497 19.5429 23.5456C19.5024 24.5943 19.8591 25.6196 20.5417 26.4167L23.5 29.375ZM73.5 30.5833C74.5931 30.5787 75.6406 30.1448 76.4167 29.375L79.375 26.4167C79.8112 26.0431 80.1655 25.5835 80.4156 25.0666C80.6657 24.5496 80.8062 23.9866 80.8284 23.4127C80.8505 22.8389 80.7538 22.2667 80.5444 21.732C80.3349 21.1973 80.0171 20.7117 79.6111 20.3056C79.205 19.8996 78.7194 19.5818 78.1847 19.3724C77.65 19.1629 77.0778 19.0662 76.504 19.0883C75.9302 19.1105 75.3671 19.2511 74.8502 19.5012C74.3332 19.7513 73.8736 20.1055 73.5 20.5417L70.8334 23.5C70.0573 24.2807 69.6217 25.3367 69.6217 26.4375C69.6217 27.5383 70.0573 28.5943 70.8334 29.375C71.5679 30.1057 72.5484 30.5365 73.5834 30.5833H73.5ZM87.5 45.8333H83.3334C82.2283 45.8333 81.1685 46.2723 80.3871 47.0537C79.6057 47.8351 79.1667 48.8949 79.1667 50C79.1667 51.1051 79.6057 52.1649 80.3871 52.9463C81.1685 53.7277 82.2283 54.1667 83.3334 54.1667H87.5C88.6051 54.1667 89.6649 53.7277 90.4463 52.9463C91.2277 52.1649 91.6667 51.1051 91.6667 50C91.6667 48.8949 91.2277 47.8351 90.4463 47.0537C89.6649 46.2723 88.6051 45.8333 87.5 45.8333ZM50 79.1667C48.895 79.1667 47.8352 79.6057 47.0538 80.3871C46.2724 81.1685 45.8334 82.2283 45.8334 83.3333V87.5C45.8334 88.6051 46.2724 89.6649 47.0538 90.4463C47.8352 91.2277 48.895 91.6667 50 91.6667C51.1051 91.6667 52.1649 91.2277 52.9463 90.4463C53.7277 89.6649 54.1667 88.6051 54.1667 87.5V83.3333C54.1667 82.2283 53.7277 81.1685 52.9463 80.3871C52.1649 79.6057 51.1051 79.1667 50 79.1667ZM76.5 70.8333C75.7084 70.393 74.7949 70.2227 73.8978 70.3481C73.0007 70.4735 72.1689 70.8878 71.5284 71.5283C70.8879 72.1689 70.4735 73.0007 70.3481 73.8978C70.2227 74.7949 70.3931 75.7084 70.8334 76.5L73.7917 79.4583C74.5724 80.2344 75.6284 80.67 76.7292 80.67C77.83 80.67 78.886 80.2344 79.6667 79.4583C80.4428 78.6777 80.8783 77.6216 80.8783 76.5208C80.8783 75.4201 80.4428 74.364 79.6667 73.5833L76.5 70.8333ZM50 27.0833C45.4676 27.0833 41.0368 28.4274 37.2682 30.9455C33.4996 33.4636 30.5623 37.0427 28.8278 41.2302C27.0933 45.4177 26.6395 50.0254 27.5237 54.4708C28.408 58.9162 30.5906 62.9996 33.7955 66.2045C37.0005 69.4095 41.0838 71.5921 45.5292 72.4763C49.9746 73.3606 54.5824 72.9068 58.7699 71.1722C62.9573 69.4377 66.5364 66.5005 69.0545 62.7318C71.5727 58.9632 72.9167 54.5325 72.9167 50C72.9057 43.9255 70.4877 38.103 66.1924 33.8076C61.8971 29.5123 56.0745 27.0944 50 27.0833ZM50 64.5833C47.1157 64.5833 44.2962 63.728 41.898 62.1256C39.4998 60.5232 37.6306 58.2456 36.5268 55.5808C35.423 52.9161 35.1342 49.9838 35.6969 47.1549C36.2596 44.3261 37.6486 41.7276 39.6881 39.688C41.7276 37.6485 44.3261 36.2596 47.155 35.6969C49.9839 35.1342 52.9161 35.423 55.5808 36.5268C58.2456 37.6305 60.5232 39.4997 62.1256 41.8979C63.7281 44.2962 64.5834 47.1157 64.5834 50C64.5834 53.8678 63.0469 57.5771 60.312 60.312C57.5771 63.0469 53.8678 64.5833 50 64.5833Z" fill="#364153"/>
</svg>
