<svg xmlns="http://www.w3.org/2000/svg" fill="none" viewBox="0 0 250 250" id="React-Query-Icon--Streamline-Svg-Logos" height="250" width="250">
  <desc>
    React Query Icon Streamline Icon: https://streamlinehq.com
  </desc>
  <path fill="#00435b" d="m153.66770833333334 151.61927083333333 -4.6953125 8.153645833333332c-1.4145833333333333 2.4559895833333334 -4.033072916666667 3.969791666666666 -6.867447916666666 3.969791666666666H106.13463541666665c-2.834375 0 -5.452864583333334 -1.5138020833333334 -6.867447916666666 -3.969791666666666l-4.695833333333333 -8.153645833333332h59.096354166666664Zm13.145312499999998 -22.824999999999996 -8.279427083333333 14.37578125h-68.828125l-8.27890625 -14.37578125h85.38645833333334Zm-7.975260416666666 -22.320052083333334 7.988541666666666 13.871354166666666H81.41328125l7.988281249999999 -13.871354166666666h69.43619791666666Zm-16.732812499999998 -21.099999999999998c2.834375 0 5.452864583333334 1.5138020833333334 6.867447916666666 3.969791666666666l4.999479166666666 8.680989583333332H94.26744791666667l4.999739583333333 -8.680989583333332c1.4145833333333333 -2.4559895833333334 4.033072916666667 -3.969791666666666 6.867447916666666 -3.969791666666666h35.9703125Z" stroke-width="2.6042"></path>
  <path fill="#002b3b" d="M53.783593749999994 81.59192708333333c-3.9846354166666664 -19.321354166666666 -4.839583333333334 -34.140625 -2.2640624999999996 -44.901302083333334 1.531770833333333 -6.3999999999999995 4.332291666666666 -11.620989583333333 8.590885416666667 -15.387838541666666 4.495833333333333 -3.976796875 10.179947916666666 -5.928229166666666 16.566666666666666 -5.928229166666666 10.536458333333334 0 21.6125 4.8046875 33.44947916666666 13.932213541666666 4.828125 3.723177083333333 9.839062499999999 8.210677083333332 15.04296875 13.465104166666666 0.4143229166666666 -0.5333333333333333 0.8825520833333332 -1.0361979166666666 1.4041666666666666 -1.5010416666666666 14.712760416666667 -13.111197916666665 27.099479166666665 -21.2571875 37.694010416666664 -24.398072916666663 6.299479166666666 -1.8675520833333332 12.214062499999999 -2.0454947916666666 17.599999999999998 -0.23294270833333333 5.6851562499999995 1.9132552083333332 10.215104166666666 5.868203125 13.411197916666666 11.407838541666665 5.274479166666666 9.142447916666667 6.665364583333333 21.155729166666664 4.698958333333333 35.988802083333326 -0.8015625 6.046093749999999 -2.171875 12.632291666666665 -4.108072916666666 19.768229166666664 0.73046875 0.08828124999999999 1.4627604166666666 0.25026041666666665 2.1877604166666664 0.49036458333333327 18.667187499999997 6.1859375 31.885416666666664 12.83828125 39.88802083333333 20.440885416666667 4.761458333333334 4.523177083333334 7.870572916666666 9.558854166666666 8.99453125 15.133072916666665 1.1864583333333332 5.88359375 0.0296875 11.78515625 -3.1624999999999996 17.320572916666663 -5.26484375 9.129166666666666 -14.945052083333334 16.329427083333332 -28.735937499999995 22.032291666666666 -5.5375 2.2898437499999997 -11.802864583333333 4.363802083333333 -18.803124999999998 6.229166666666666 0.31953125 0.7210937499999999 0.5671875 1.4869791666666665 0.7330729166666665 2.290625 3.9846354166666664 19.32109375 4.839583333333334 34.14036458333333 2.2640624999999996 44.901302083333334 -1.531770833333333 6.3999999999999995 -4.332552083333333 11.620833333333332 -8.590885416666667 15.387760416666666 -4.495833333333333 3.976822916666666 -10.179947916666666 5.9281250000000005 -16.566927083333333 5.9281250000000005 -10.536197916666666 0 -21.6125 -4.8046875 -33.44947916666666 -13.932291666666664 -4.879427083333333 -3.7625 -9.945572916666666 -8.305989583333332 -15.209114583333333 -13.6328125 -0.5416666666666666 0.8471354166666666 -1.2065104166666665 1.6343750000000001 -1.9929687499999997 2.3354166666666667 -14.712760416666667 13.1109375 -27.099479166666665 21.257031249999997 -37.694010416666664 24.397916666666667 -6.299479166666666 1.8674479166666664 -12.214062499999999 2.0453124999999996 -17.599999999999998 0.23281249999999998 -5.6851562499999995 -1.91328125 -10.215104166666666 -5.868229166666667 -13.411197916666666 -11.4078125 -5.274479166666666 -9.142447916666667 -6.665364583333333 -21.155468749999997 -4.698958333333333 -35.988802083333326 0.83046875 -6.264583333333333 2.271614583333333 -13.109114583333334 4.320052083333334 -20.544270833333332 -0.8005208333333333 -0.08098958333333332 -1.6046874999999998 -0.25026041666666665 -2.399739583333333 -0.5138020833333333 -18.667187499999997 -6.186197916666667 -31.885390625 -12.838541666666666 -39.888072916666665 -20.440885416666667 -4.761380208333333 -4.523177083333334 -7.8706249999999995 -9.558854166666666 -8.994583333333333 -15.133072916666665 -1.1863619791666666 -5.88359375 -0.029583333333333333 -11.78515625 3.1627083333333332 -17.320572916666663 5.264765624999999 -9.129166666666666 14.945078124999998 -16.329427083333332 28.735833333333336 -22.032291666666666 5.702604166666666 -2.358333333333333 12.176822916666667 -4.487239583333333 19.430729166666666 -6.395312499999999 -0.2583333333333333 -0.6328125 -0.46249999999999997 -1.2979166666666666 -0.60546875 -1.9911458333333332Z" stroke-width="2.6042"></path>
  <path fill="#ff4154" d="M183.94713541666667 169.64010416666667c1.85625 -0.32890624999999996 3.6346354166666663 0.8611979166666666 4.04921875 2.68671875l0.022656249999999996 0.10807291666666667 0.19791666666666666 1.02734375c6.415885416666666 33.73203125 1.8963541666666663 50.59817708333333 -13.559114583333331 50.59817708333333 -15.121354166666666 0 -34.37083333333333 -14.391666666666666 -57.74817708333333 -43.17552083333333 -0.5166666666666666 -0.6359374999999999 -0.7953125 -1.43203125 -0.78828125 -2.2513020833333335 0.016927083333333332 -1.9085937499999999 1.5484375 -3.44921875 3.443489583333333 -3.490625l0.10963541666666665 -0.0005208333333333333 1.2309895833333333 0.008593749999999999c9.8375 0.053385416666666664 19.40078125 -0.2895833333333333 28.690104166666664 -1.02890625 10.965625 -0.87265625 22.41614583333333 -2.3666666666666667 34.3515625 -4.48203125Zm-106.14114583333334 -25.49817708333333 0.05911458333333333 0.09999999999999999 0.6177083333333333 1.0781249999999998c4.950260416666667 8.605989583333333 10.1078125 16.77421875 15.472395833333332 24.5046875 6.3179687499999995 9.10390625 13.42265625 18.320052083333334 21.314322916666665 27.6484375 1.2208333333333332 1.4432291666666666 1.08125 3.58515625 -0.29583333333333334 4.859114583333333l-0.08958333333333333 0.08020833333333333 -0.7942708333333333 0.6833333333333333c-26.110416666666666 22.372656250000002 -43.08098958333333 26.838802083333334 -50.91223958333333 13.398958333333333 -7.665364583333332 -13.15546875 -4.886197916666666 -37.07604166666666 8.3375 -71.76145833333332 0.290625 -0.7622395833333333 0.8367187499999998 -1.4 1.5450520833333334 -1.8041666666666665 1.6557291666666667 -0.9450520833333332 3.754947916666666 -0.39947916666666666 4.745833333333333 1.2127604166666666ZM197.196875 94.3671875l0.10703125 0.034895833333333334 0.9828125 0.33932291666666664C230.515625 105.95260416666666 242.76041666666666 118.2734375 235.02057291666665 131.70364583333333c-7.569791666666666 13.134895833333333 -29.575781250000002 22.6984375 -66.01822916666666 28.69036458333333 -0.8127604166666665 0.13359374999999998 -1.6466145833333332 -0.021875 -2.3565104166666666 -0.4393229166666666 -1.6768229166666666 -0.9856770833333333 -2.237239583333333 -3.144270833333333 -1.2513020833333333 -4.821354166666667 5.21953125 -8.878645833333334 9.920572916666666 -17.71302083333333 14.102864583333332 -26.50286458333333 4.743489583333333 -9.969010416666666 9.194791666666667 -20.669270833333332 13.354166666666666 -32.10078125 0.6307291666666667 -1.7333333333333332 2.4830729166666665 -2.674739583333333 4.238020833333333 -2.19375l0.10729166666666666 0.03125Zm-113.84427083333333 -5.64453125c1.6768229166666666 0.9856770833333333 2.237239583333333 3.144270833333333 1.2513020833333333 4.821354166666667 -5.21953125 8.878645833333334 -9.920572916666666 17.71302083333333 -14.102864583333332 26.503124999999997 -4.743489583333333 9.968749999999998 -9.194791666666667 20.669010416666666 -13.354166666666666 32.10078125 -0.6434895833333333 1.7684895833333334 -2.5593749999999997 2.7125 -4.3453125 2.162239583333333l-0.10703125 -0.034895833333333334 -0.9828125 -0.33932291666666664C19.48270833333333 142.72473958333333 7.238046874999999 130.40390624999998 14.977786458333334 116.97395833333333c7.569713541666665 -13.13515625 29.575859374999997 -22.698697916666667 66.01830729166667 -28.690625 0.8127604166666665 -0.13359374999999998 1.6463541666666666 0.021875 2.3565104166666666 0.4393229166666666Zm103.46822916666666 -55.21927083333333c7.665364583333332 13.15546875 4.886197916666666 37.07604166666666 -8.3375 71.76145833333332 -0.290625 0.7622395833333333 -0.8367187499999998 1.4 -1.5450520833333334 1.8044270833333331 -1.6557291666666667 0.9447916666666667 -3.754947916666666 0.39921874999999996 -4.745833333333333 -1.2130208333333332l-0.05911458333333333 -0.09999999999999999 -0.6177083333333333 -1.0781249999999998c-4.950260416666667 -8.605989583333333 -10.1078125 -16.77421875 -15.472395833333332 -24.5046875 -6.3179687499999995 -9.103645833333333 -13.42265625 -18.320052083333334 -21.314322916666665 -27.6484375 -1.2208333333333332 -1.4432291666666666 -1.0815104166666667 -3.58515625 0.29583333333333334 -4.859114583333333l0.08958333333333333 -0.08020833333333333 0.7940104166666666 -0.6833333333333333C162.01875 24.52981770833333 178.98958333333331 20.063541666666666 186.82083333333333 33.50338541666666ZM76.66119791666667 25.497447916666665c15.121614583333333 0 34.37109374999999 14.391875 57.748437499999994 43.17546875 0.5166666666666666 0.6359374999999999 0.7953125 1.43203125 0.78828125 2.2513020833333335 -0.016927083333333332 1.9085937499999999 -1.5484375 3.44921875 -3.443489583333333 3.490625l-0.10963541666666665 0.0007812499999999999 -1.2309895833333333 -0.008854166666666666c-9.8375 -0.053385416666666664 -19.40078125 0.2895833333333333 -28.690104166666664 1.02890625 -10.965625 0.8729166666666666 -22.41614583333333 2.366927083333333 -34.3515625 4.48203125 -1.85625 0.32890624999999996 -3.6348958333333328 -0.8609374999999999 -4.04921875 -2.6864583333333334l-0.022656249999999996 -0.10833333333333332 -0.19791666666666666 -1.02734375c-6.416145833333333 -33.73203125 -1.8963541666666663 -50.598125 13.558854166666666 -50.598125Z" stroke-width="2.6042"></path>
  <path fill="#ffd94c" d="M109.02499999999999 85.81666666666666h30.19348958333333c4.4156249999999995 0 8.494010416666665 2.36171875 10.691927083333331 6.191406249999999l15.160416666666666 26.416406249999998c2.1809895833333335 3.8002604166666667 2.1809895833333335 8.472395833333334 0 12.272395833333333l-15.160416666666666 26.416406249999998c-2.1979166666666665 3.8296874999999995 -6.2763020833333325 6.191406249999999 -10.691927083333331 6.191406249999999H109.02499999999999c-4.4156249999999995 0 -8.494010416666665 -2.36171875 -10.691927083333331 -6.191406249999999l-15.160677083333333 -26.416406249999998c-2.1807291666666666 -3.8 -2.1807291666666666 -8.472135416666665 0 -12.272395833333333l15.160677083333333 -26.416406249999998c2.1979166666666665 -3.8296874999999995 6.2763020833333325 -6.191406249999999 10.691927083333331 -6.191406249999999Zm25.591666666666665 7.973177083333333c4.417968749999999 0 8.498177083333333 2.3640625 10.695052083333334 6.197135416666667l10.571874999999999 18.443229166666665c2.1765624999999997 3.7971354166666664 2.1765624999999997 8.463802083333334 0 12.260937499999999l-10.571874999999999 18.44348958333333c-2.196875 3.8328124999999997 -6.277083333333334 6.197135416666667 -10.695052083333334 6.197135416666667h-20.990104166666665c-4.417968749999999 0 -8.497916666666665 -2.3643229166666666 -10.695052083333334 -6.197135416666667l-10.571874999999999 -18.44348958333333c-2.1765624999999997 -3.7971354166666664 -2.1765624999999997 -8.463802083333334 0 -12.260937499999999l10.571874999999999 -18.443229166666665c2.1971354166666663 -3.8330729166666666 6.277083333333334 -6.197135416666667 10.695052083333334 -6.197135416666667h20.990104166666665Zm-4.96015625 8.720312499999999h-11.069791666666665c-4.413541666666666 0 -8.490104166666667 2.359375 -10.689062499999999 6.186197916666667l-5.586458333333333 9.722916666666666c-2.184895833333333 3.8028645833333328 -2.184895833333333 8.480208333333334 0 12.283072916666667l5.586458333333333 9.722656249999998c2.198958333333333 3.8268229166666665 6.275520833333333 6.186197916666667 10.689062499999999 6.186197916666667h11.069791666666665c4.413541666666666 0 8.490364583333333 -2.359375 10.689062499999999 -6.186197916666667l5.586458333333333 -9.722656249999998c2.184895833333333 -3.8028645833333328 2.184895833333333 -8.480208333333334 0 -12.283072916666667l-5.586458333333333 -9.722916666666666c-2.1986979166666667 -3.8268229166666665 -6.275520833333333 -6.186197916666667 -10.689062499999999 -6.186197916666667Zm-4.77578125 8.346874999999999c4.41015625 0 8.484375 2.355989583333333 10.684114583333331 6.178125l0.7921875 1.3760416666666666c2.191145833333333 3.806770833333333 2.191145833333333 8.4921875 0 12.298958333333333l-0.7921875 1.3760416666666666c-2.1997395833333333 3.822395833333333 -6.273958333333333 6.178125 -10.684114583333331 6.178125h-1.5182291666666665c-4.41015625 0 -8.484114583333332 -2.3557291666666664 -10.684114583333331 -6.178125l-0.7921875 -1.3760416666666666c-2.191145833333333 -3.806770833333333 -2.191145833333333 -8.4921875 0 -12.298958333333333l0.7921875 -1.3760416666666666c2.1999999999999997 -3.8221354166666663 6.273958333333333 -6.178125 10.684114583333331 -6.178125h1.5182291666666665Zm-0.75703125 8.222135416666667c-1.9630208333333332 0 -3.773177083333333 1.0447916666666666 -4.753125 2.7408854166666665 -0.9799479166666667 1.6955729166666667 -0.9799479166666667 3.7856770833333333 0 5.481510416666667 0.9799479166666667 1.6958333333333333 2.790104166666666 2.7406249999999996 4.748958333333333 2.7406249999999996 1.9630208333333332 0 3.773177083333333 -1.0447916666666666 4.753125 -2.7406249999999996 0.9799479166666667 -1.6958333333333333 0.9799479166666667 -3.7859374999999997 0 -5.481510416666667 -0.9799479166666667 -1.69609375 -2.790104166666666 -2.7408854166666665 -4.748958333333333 -2.7408854166666665Zm-44.47291666666666 5.481510416666667h9.869010416666665Z" stroke-width="2.6042"></path>
</svg>